<?xml version="1.0" encoding="utf-8"?>
<!-- Generator: Adobe Illustrator 22.1.0, SVG Export Plug-In . SVG Version: 6.00 Build 0)  -->
<svg version="1.1" id="Capa_1" xmlns="http://www.w3.org/2000/svg" xmlns:xlink="http://www.w3.org/1999/xlink" x="0px" y="0px"
	 viewBox="0 0 487.5 225.4" style="enable-background:new 0 0 487.5 225.4;" xml:space="preserve">
<style type="text/css">
	.st0{fill:#4B0E00;stroke:#4B0E00;stroke-miterlimit:10;}
	.st1{fill:#4B0E00;}
	.st2{fill:none;}
	.st3{fill:#E32F68;}
	.st4{fill:#B0C844;}
</style>
<title>logo_color_cacao_1</title>
<path class="st0" d="M228.9,172.1h6.5v0.9h-5.6v4.8h5.1v0.9h-5.1v5.1h-0.9L228.9,172.1z"/>
<path class="st0" d="M241.2,183.7v-11.6h2.8c3.2,0,4.1,1.6,4.1,3.4c0,1.6-1.2,3-2.8,3.2l4.1,5.1h-1.1l-3.9-4.9h-2.3v4.9L241.2,183.7
	z M242.1,173v5h2c1.5,0.1,2.9-1,3-2.6c0-1.4-0.8-2.5-3.1-2.5L242.1,173z"/>
<path class="st0" d="M259.4,172c3.3-0.1,6.1,2.5,6.2,5.8c0.1,3.3-2.5,6.1-5.8,6.2s-6.1-2.5-6.2-5.8c0-0.1,0-0.1,0-0.2
	c-0.1-3.2,2.3-5.8,5.5-6C259.1,172,259.3,172,259.4,172z M259.4,183c2.8,0.1,5.2-2,5.3-4.9c0.1-2.8-2-5.2-4.9-5.3
	c-2.8-0.1-5.2,2-5.3,4.9c0,0.1,0,0.2,0,0.2c-0.1,2.7,2,5,4.7,5.1C259.3,183,259.3,183,259.4,183z"/>
<path class="st0" d="M271.3,172.1h0.9l4.7,6.4l4.5-6.4h0.9v11.6h-0.9v-10.2l-4.5,6.3h-0.1l-4.5-6.2v10.1h-0.9L271.3,172.1z"/>
<path class="st0" d="M296.5,172.1c0.6,0,2-0.1,3-0.1c2.8,0,3.7,1.3,3.7,2.9c0,1.3-0.9,2.5-2.3,2.7l0,0c1.5,0,2.7,1.2,2.7,2.7
	c0,0,0,0.1,0,0.1c0,2.3-1.8,3.3-4.1,3.3c-1,0-2.4,0-3-0.1L296.5,172.1z M297.4,173v4.4h2.3c1.3,0.1,2.5-0.8,2.6-2.1
	c0-0.1,0-0.1,0-0.2c0-1.4-0.9-2.2-2.8-2.2C298.8,172.9,297.8,173,297.4,173L297.4,173z M297.4,178.2v4.6c0.5,0,1.4,0.1,2.2,0.1
	c2,0,3.2-0.8,3.2-2.5c0-1.4-1.1-2.2-3.1-2.2H297.4z"/>
<path class="st0" d="M310,172.1h6.4v0.9h-5.5v4.4h5v0.9h-5v4.6h5.7v0.9H310V172.1z"/>
<path class="st0" d="M326.4,172h0.8l5.1,11.7h-1l-1.7-3.9H324l-1.7,3.9h-0.9L326.4,172z M324.4,178.9h4.8l-2.4-5.6L324.4,178.9z"/>
<path class="st0" d="M346.6,183.7l-7.9-10v10h-0.9v-11.6h0.7l7.9,10v-10h0.9v11.6H346.6z"/>
<path class="st0" d="M359.8,172.1h9.5v0.9H365v10.8h-0.9V173h-4.3L359.8,172.1z"/>
<path class="st0" d="M379,172c3.3-0.1,6.1,2.5,6.2,5.8c0.1,3.3-2.5,6.1-5.8,6.2s-6.1-2.5-6.2-5.8c0-0.1,0-0.1,0-0.2
	c-0.1-3.2,2.3-5.8,5.5-6C378.8,172,378.9,172,379,172z M379,183c2.8,0.1,5.2-2,5.3-4.9c0.1-2.8-2-5.2-4.9-5.3
	c-2.8-0.1-5.2,2-5.3,4.9c0,0.1,0,0.2,0,0.2c-0.1,2.7,2,5,4.7,5.1C378.9,183,378.9,183,379,183z"/>
<path class="st0" d="M406.2,178.2H399v5.5h-0.9v-11.6h0.9v5.3h7.3v-5.3h0.9v11.6h-0.9L406.2,178.2z"/>
<path class="st0" d="M414.1,172.1h6.4v0.9H415v4.4h5v0.9h-5v4.6h5.7v0.9h-6.6L414.1,172.1z"/>
<path class="st0" d="M430.6,172h0.8l5.1,11.7h-1l-1.7-3.9h-5.6l-1.7,3.9h-0.9L430.6,172z M428.5,178.9h4.8l-2.4-5.6L428.5,178.9z"/>
<path class="st0" d="M441.9,183.7v-11.6h2.8c3.2,0,4.1,1.6,4.1,3.4c0,1.6-1.2,3-2.8,3.2l4.1,5.1h-1.1l-3.9-4.9h-2.3v4.9L441.9,183.7
	z M442.8,173v5h2c1.5,0.1,2.9-1,3-2.6c0-1.4-0.8-2.5-3.1-2.5L442.8,173z"/>
<path class="st0" d="M453.2,172.1h9.5v0.9h-4.3v10.8h-0.9V173h-4.3L453.2,172.1z"/>
<path class="st1" d="M327,69.2c0,3.8-0.6,7.6-2,11.2c-1.3,3.3-3.2,6.4-5.6,8.9c-2.5,2.5-5.5,4.6-8.8,5.9c-7.3,2.8-15.5,2.8-22.8,0
	c-3.3-1.3-6.3-3.3-8.8-5.9c-2.5-2.6-4.4-5.6-5.7-8.9c-2.7-7.2-2.7-15.2,0-22.4c1.3-3.3,3.2-6.4,5.7-9c2.5-2.5,5.5-4.5,8.8-5.9
	c3.6-1.4,7.5-2.2,11.4-2.1c2.7,0,5.3,0.3,7.9,1c2.4,0.6,4.6,1.5,6.8,2.7c2,1.2,3.9,2.6,5.5,4.3c1.6,1.7,3,3.6,4.2,5.7
	c1.2,2.1,2,4.4,2.6,6.8C326.7,64,327,66.6,327,69.2z M316.5,69.2c0-2.8-0.4-5.5-1.2-8.2c-0.7-2.3-1.9-4.3-3.5-6.1
	c-1.5-1.7-3.4-3-5.5-3.8c-4.7-1.8-9.8-1.8-14.5,0c-2.1,0.9-4,2.2-5.5,3.8c-1.6,1.8-2.8,3.9-3.5,6.1c-0.8,2.6-1.3,5.4-1.2,8.1
	c0,2.8,0.4,5.5,1.2,8.1c0.7,2.2,1.9,4.3,3.5,6.1c1.5,1.7,3.4,3,5.5,3.8c4.7,1.8,9.8,1.8,14.5,0c2.1-0.8,4-2.2,5.5-3.8
	c1.6-1.8,2.7-3.8,3.5-6.1C316.1,74.6,316.6,71.9,316.5,69.2L316.5,69.2z"/>
<path class="st1" d="M363.8,88.2v8.4h-32.2v-55h10.2v46.6H363.8z"/>
<path class="st1" d="M417.2,69.2c0,3.8-0.6,7.6-2,11.2c-1.3,3.3-3.2,6.4-5.6,8.9c-2.5,2.5-5.5,4.6-8.8,5.9c-7.3,2.8-15.5,2.8-22.8,0
	c-3.3-1.3-6.3-3.3-8.8-5.9c-2.5-2.6-4.4-5.6-5.7-8.9c-2.7-7.2-2.7-15.2,0-22.4c1.3-3.3,3.2-6.4,5.7-9c2.5-2.5,5.5-4.5,8.8-5.8
	c3.6-1.4,7.5-2.2,11.4-2.1c2.7,0,5.3,0.3,7.9,1c2.4,0.6,4.6,1.5,6.7,2.7c2,1.2,3.9,2.6,5.5,4.3c1.6,1.7,3,3.6,4.2,5.7
	c1.2,2.1,2,4.4,2.6,6.8C416.9,64,417.2,66.6,417.2,69.2z M406.8,69.2c0-2.8-0.4-5.5-1.2-8.2c-0.7-2.3-1.9-4.3-3.5-6.1
	c-1.5-1.7-3.4-3-5.5-3.8c-4.7-1.8-9.8-1.8-14.5,0c-2.1,0.9-4,2.2-5.5,3.8c-1.6,1.8-2.8,3.9-3.5,6.1c-0.8,2.6-1.2,5.4-1.2,8.2
	c0,2.8,0.4,5.5,1.2,8.1c0.7,2.2,1.9,4.3,3.5,6.1c1.5,1.7,3.4,3,5.5,3.8c4.7,1.8,9.8,1.8,14.5,0c2.1-0.8,4-2.2,5.5-3.8
	c1.6-1.8,2.7-3.8,3.5-6.1C406.4,74.7,406.8,71.9,406.8,69.2L406.8,69.2z"/>
<path class="st1" d="M464.8,96.7h-9.3c-1.6,0.1-3-0.7-3.8-2.1L440.2,77c-0.4-0.6-0.8-1.1-1.4-1.4c-0.7-0.3-1.5-0.5-2.3-0.4h-4.4
	v21.5h-10.2v-55h16.8c3.2-0.1,6.5,0.3,9.6,1.2c2.4,0.6,4.6,1.7,6.6,3.3c1.7,1.3,3,3,3.8,5c1.5,3.7,1.6,7.8,0.4,11.7
	c-0.5,1.6-1.3,3.1-2.4,4.5c-1.1,1.4-2.4,2.6-3.8,3.5c-1.6,1.1-3.3,1.9-5.2,2.4c0.7,0.4,1.3,0.8,1.8,1.3c0.6,0.5,1.1,1.2,1.5,1.8
	L464.8,96.7z M438.5,67.8c1.7,0,3.4-0.2,5-0.7c1.3-0.4,2.5-1.1,3.5-2c0.9-0.8,1.6-1.9,2.1-3c0.5-1.2,0.7-2.5,0.7-3.8
	c0.2-2.5-0.9-4.9-2.8-6.5c-1.8-1.5-4.6-2.2-8.4-2.3H432v18.3H438.5z"/>
<g>
	<path class="st1" d="M267.5,83.7c0.6,0,1.1,0.2,1.5,0.7l4,4.4c-2.2,2.7-5,4.9-8.2,6.3c-3.7,1.6-7.7,2.3-11.7,2.2
		c-3.8,0.1-7.5-0.7-11-2.1c-3.2-1.3-6-3.3-8.4-5.8c-2.4-2.6-4.2-5.6-5.3-8.9c-1.3-3.6-1.9-7.5-1.9-11.3c0-3.9,0.6-7.7,2-11.4
		c1.2-3.3,3.1-6.3,5.6-8.9c2.4-2.5,5.3-4.5,8.6-5.8c3.5-1.4,7.2-2.1,11-2.1c3.7-0.1,7.3,0.6,10.7,2c2.9,1.2,5.6,3,7.9,5.2l-3.4,4.8
		c-0.2,0.3-0.5,0.6-0.8,0.8c-0.4,0.2-0.8,0.4-1.3,0.3c-0.4,0-0.8-0.1-1.2-0.3c-0.4-0.2-0.8-0.5-1.3-0.8c-0.5-0.3-1-0.7-1.7-1
		c-0.7-0.4-1.4-0.7-2.2-1c-0.9-0.3-1.9-0.6-2.9-0.8c-1.3-0.2-2.5-0.3-3.8-0.3c-2.3,0-4.6,0.4-6.8,1.3c-2,0.9-3.8,2.2-5.3,3.8
		c-1.5,1.7-2.7,3.8-3.4,6c-0.9,2.6-1.3,5.4-1.2,8.2c0,2.8,0.4,5.6,1.3,8.3c0.8,2.2,2,4.3,3.6,6.1c1.5,1.6,3.3,2.9,5.3,3.8
		c2.1,0.9,4.3,1.3,6.5,1.3c1.3,0,2.5-0.1,3.8-0.2c1.1-0.1,2.1-0.4,3.1-0.7c0.9-0.3,1.8-0.8,2.7-1.3c0.9-0.6,1.7-1.2,2.5-1.9
		c0.2-0.2,0.5-0.4,0.8-0.6C266.9,83.8,267.2,83.7,267.5,83.7z"/>
	<path class="st1" d="M264.2,145.3c0.5,0,1,0.2,1.4,0.6l3.7,4c-2,2.5-4.6,4.5-7.6,5.9c-3.4,1.4-7.1,2.1-10.8,2
		c-3.5,0.1-6.9-0.6-10.2-1.9c-2.9-1.2-5.5-3.1-7.7-5.4c-2.2-2.4-3.8-5.2-4.9-8.2c-1.2-3.4-1.7-6.9-1.7-10.4c0-3.6,0.6-7.1,1.8-10.5
		c1.1-3.1,2.9-5.8,5.1-8.2c2.2-2.3,4.9-4.1,7.9-5.4c3.2-1.3,6.7-2,10.2-1.9c3.4-0.1,6.7,0.6,9.8,1.8c2.7,1.1,5.2,2.7,7.3,4.8
		l-3.2,4.4c-0.2,0.3-0.4,0.5-0.7,0.7c-0.4,0.2-0.8,0.3-1.2,0.3c-0.4,0-0.8-0.1-1.1-0.3c-0.4-0.2-0.8-0.4-1.2-0.7
		c-0.4-0.3-1-0.6-1.5-1c-0.6-0.4-1.3-0.7-2-1c-0.9-0.3-1.8-0.6-2.7-0.7c-1.2-0.2-2.3-0.3-3.5-0.3c-2.1,0-4.3,0.4-6.2,1.2
		c-1.9,0.8-3.5,2-4.9,3.5c-1.4,1.6-2.5,3.6-3.2,5.6c-0.8,2.5-1.2,5.1-1.2,7.7c0,2.6,0.4,5.2,1.2,7.6c0.7,2.1,1.8,4,3.3,5.6
		c1.4,1.5,3,2.7,4.9,3.5c1.9,0.8,3.9,1.2,6,1.2c1.2,0,2.3-0.1,3.5-0.2c1-0.1,1.9-0.4,2.9-0.7c0.9-0.3,1.7-0.7,2.5-1.2
		c0.8-0.5,1.6-1.1,2.3-1.8c0.2-0.2,0.5-0.4,0.7-0.5C263.6,145.4,263.9,145.3,264.2,145.3z"/>
	<path class="st1" d="M318.8,157.3h-7.3c-0.7,0-1.4-0.2-2-0.6c-0.5-0.4-0.9-0.9-1.2-1.5l-3.8-10.4h-21l-3.8,10.4
		c-0.2,0.6-0.6,1.1-1.1,1.5c-0.6,0.5-1.3,0.7-2,0.7h-7.4l20-50.8h9.6L318.8,157.3z M302.1,138.1l-6.2-16.9c-0.3-0.7-0.6-1.6-1-2.7
		c-0.3-1-0.7-2.1-1-3.3c-0.3,1.2-0.6,2.3-1,3.3c-0.3,1-0.6,1.9-1,2.7l-6.1,16.8L302.1,138.1z"/>
	<path class="st1" d="M356.9,145.3c0.5,0,1,0.2,1.4,0.6l3.7,4c-2,2.5-4.6,4.5-7.6,5.9c-3.4,1.4-7.1,2.1-10.8,2
		c-3.5,0.1-6.9-0.6-10.2-1.9c-2.9-1.2-5.5-3.1-7.7-5.4c-2.2-2.4-3.8-5.2-4.9-8.2c-1.2-3.4-1.7-6.9-1.7-10.4c0-3.6,0.6-7.1,1.8-10.5
		c1.1-3.1,2.9-5.8,5.1-8.2c2.2-2.3,4.9-4.1,7.9-5.4c3.2-1.3,6.7-2,10.2-1.9c3.4-0.1,6.7,0.6,9.9,1.8c2.7,1.1,5.2,2.7,7.3,4.8
		l-3.2,4.4c-0.2,0.3-0.4,0.5-0.7,0.7c-0.4,0.2-0.8,0.3-1.2,0.3c-0.4,0-0.8-0.1-1.1-0.3c-0.4-0.2-0.8-0.4-1.2-0.7
		c-0.4-0.3-1-0.6-1.5-1c-0.6-0.4-1.3-0.7-2-1c-0.9-0.3-1.8-0.6-2.7-0.7c-1.2-0.2-2.3-0.3-3.5-0.3c-2.1,0-4.3,0.4-6.2,1.2
		c-1.9,0.8-3.5,2-4.9,3.5c-1.4,1.6-2.5,3.6-3.2,5.6c-0.8,2.4-1.2,5-1.1,7.6c0,2.6,0.4,5.2,1.2,7.6c0.7,2.1,1.8,4,3.3,5.6
		c1.4,1.5,3,2.7,4.9,3.5c1.9,0.8,3.9,1.2,6,1.2c1.2,0,2.3-0.1,3.5-0.2c1-0.1,1.9-0.4,2.9-0.7c0.9-0.3,1.7-0.7,2.5-1.2
		c0.8-0.5,1.6-1.1,2.3-1.8c0.2-0.2,0.5-0.4,0.7-0.5C356.4,145.3,356.7,145.3,356.9,145.3z"/>
	<path class="st1" d="M411.5,157.3h-7.3c-0.7,0-1.4-0.2-2-0.6c-0.5-0.4-0.9-0.9-1.2-1.5l-3.8-10.4h-21l-3.8,10.4
		c-0.2,0.6-0.6,1.1-1.1,1.5c-0.6,0.5-1.3,0.7-2,0.7H362l20-50.8h9.6L411.5,157.3z M394.9,138.1l-6.2-16.9c-0.3-0.7-0.6-1.6-1-2.7
		c-0.3-1-0.7-2.1-1-3.3c-0.3,1.2-0.6,2.3-1,3.3c-0.3,1-0.6,1.9-1,2.7l-6.1,16.8L394.9,138.1z"/>
	<path class="st1" d="M463.3,131.9c0,3.5-0.6,7-1.8,10.3c-1.2,3.1-2.9,5.9-5.2,8.2c-2.3,2.4-5.1,4.2-8.1,5.4c-6.8,2.6-14.2,2.6-21,0
		c-3.1-1.2-5.8-3.1-8.1-5.4c-2.3-2.4-4.1-5.2-5.3-8.2c-2.5-6.7-2.5-14,0-20.7c1.2-3.1,3-5.9,5.3-8.2c2.3-2.4,5.1-4.2,8.1-5.4
		c3.3-1.3,6.9-2,10.5-1.9c2.5,0,4.9,0.3,7.3,0.9c2.2,0.6,4.3,1.4,6.3,2.5c1.9,1.1,3.6,2.4,5.1,4c1.5,1.6,2.8,3.3,3.9,5.2
		c1.1,2,1.9,4.1,2.4,6.3C463,127.1,463.3,129.5,463.3,131.9z M453.6,131.9c0-2.5-0.3-5.1-1.1-7.5c-0.7-2.1-1.8-4-3.2-5.6
		c-1.4-1.5-3.1-2.8-5-3.6c-4.3-1.6-9.1-1.6-13.4,0c-1.9,0.8-3.7,2-5.1,3.6c-1.4,1.6-2.5,3.6-3.2,5.6c-1.5,4.9-1.5,10.1,0,15
		c0.7,2.1,1.8,4,3.2,5.6c1.4,1.5,3.1,2.7,5.1,3.5c4.3,1.6,9.1,1.6,13.4,0c1.9-0.8,3.6-2,5-3.5c1.4-1.6,2.5-3.5,3.2-5.6
		C453.3,137,453.6,134.4,453.6,131.9z"/>
</g>
<rect class="st2" width="487.5" height="225.4"/>
<path class="st1" d="M154,189.8c0.4-1.2,0.7-2.3,1.1-3.5c4.3-14,10.4-27.7,19.9-38.9c4.3-7.2,7.7-14.9,10.1-22.9
	c0.7-2.4,1.4-5.4,4.1-6.3c0.3-0.1,0.7-0.2,1-0.2V51.9c0-13.4-10.8-24.2-24.2-24.2H44.5c-9,0-16.9,4.9-21,12.2l5.4-1.2
	c2.7-0.6,5.4-1.2,8.1-1.8l1-0.3c0.1,0,0.3,0,0.4,0l4.1-0.9c0.8-0.4,1.5-0.8,2.3-1.1c1.2-0.6,3.5-1.4,2-3.1c-0.6-0.6-1.5-0.9-2.3-1
	c-0.9,0.2-1.8,0.2-2.8,0.2c-0.1,0-0.3-0.1-0.4-0.1c-3,0.1-5.9,0.2-8.9,0.5c3.7-2.1,7.8-3.2,12.1-3.2h46.3l-0.1,0.1
	c-1.3,2.8-3.6,4.9-6,6.7c-3.3,2.5-6.6,5-9.9,7.4c-9.4,7-18.6,14.8-28.7,21c-2,1.3-4,2.6-6,3.9c-7,4.5-13.6,8.4-19.9,11.9v41.7
	c0.7-1.3,1.4-2.6,2.1-3.9c1.5-3.2,3.4-6.1,5.6-8.8c2.6-3.6,5.5-6.9,8.8-10c0.1-0.1,0.2-0.1,0.3-0.2c6.8-7.3,14.7-13.4,22.9-19.2
	C72.1,70,85.4,63.3,99.5,58.9c3.6-1.2,7.2-2.2,10.8-3.3c9.3-3.9,18.3-8.6,26.9-14c-7.7,1.3-15.4,2.8-23.1,4.3
	c-0.1,0.1-0.3,0.1-0.4,0.2c-12.1,2.9-23.8,7.1-35,12.5C59.1,68,40.6,81.2,26,97.6c-2,2.3-3.9,4.6-5.7,7V93.9
	c1.1-1.5,2.3-2.8,3.5-4.2v-0.1c0.1-0.2,0.3-0.4,0.5-0.6l0.9-1c0.7-0.8,1.4-1.5,2.1-2.3C35.8,77.3,45,69.7,55,63
	c1.8-1.3,3.5-2.6,5.3-3.8l0.5-0.4c0.1-0.1,0.2-0.1,0.4-0.2c3.5-2.4,7.1-4.6,10.8-6.7c11.5-6.7,23.5-12.4,35.9-17.1
	c8.7-3.3,17.7-5.1,26.7-7h31.3c5.4,0,10.6,1.8,14.8,5.1c1.4,6.7,1.5,13.9,1.5,20.4c0,8.9-0.8,17.9-3.4,26.4
	c-2.2,7.1-4.9,14.1-7.8,21c-1,2.5-2.1,5.1-3.2,7.6c-1.3,3.5-2.8,7-4.4,10.3c-1,2-2,4-3.2,5.9l-0.1,0.2c-2.5,4.9-5,10.7-9,14.7
	c-0.8,1.2-1.6,2.4-2.5,3.5l-1.4,1.9c-2.7,4-5.6,7.8-8.8,11.4c-3.9,4.8-8.2,9.4-12.6,13.7c0.1,0.5-0.1,0.9-0.5,1.2
	c-7.9,6.1-15.6,12.8-23.9,18.3c-5.1,3.4-10.6,6.1-16.3,8.1H65.2l0.5-0.1c12.9-4.1,25.2-9.8,36.6-17.2c8.2-5.2,15.8-11.4,22.7-18.3
	l0.1-0.1l7-7.7c0.5-0.6,1-1.2,1.5-1.9c8.9-10.9,15.3-23.2,21-36c1.2-2.8,2.4-5.5,3.6-8.3c1.9-6,3.3-12.1,4.3-18.3
	c0.4-3.1,0.6-6.2,1-9.3c0.3-2.4,0.8-4.7,1.3-7.1c-0.1-0.2-0.1-0.4-0.1-0.6c0.4-7.3,1.8-14.7,2.6-22.1c0-0.4,0-0.9,0-1.3
	c-0.3-0.3-0.4-0.7-0.3-1.1c0.5-2.6-0.4-5.3-2.4-7.2c-2.4-1.3-5.9-0.4-8.6,0.8c-0.2,0.1-0.3,0.1-0.5,0.1c-1.6,1.1-3.3,2.1-5.1,3.1
	c-2.8,1.7-5.7,3.1-8.7,4.4c-0.1,0.1-0.3,0.2-0.5,0.3c-11,4.1-21.9,8.5-32.6,13.3c-9.7,4.3-19.2,9-28.6,13.8
	c-9.1,4.8-18.3,9.6-26.7,15.3c-12.2,8.5-21,20-28.6,32.4c0,0.1-0.1,0.2-0.1,0.3c-1.8,2.9-3.2,5.9-4.3,9.1v39.2
	c0,13.4,10.8,24.2,24.2,24.2h107c0.3-1.1,0.6-2.3,1-3.4C152.9,192.6,153.4,191.2,154,189.8z M33.8,195c-5.2-2.6-9.3-7-11.6-12.3
	l4-6.1c6.4-9.8,12.4-20.3,19.8-29.5c1.4-2,2.8-3.9,4.3-5.8c27.2-35.4,47.5-51.3,81.9-79.2c0.4-0.4,1.1-0.4,1.5,0
	c0.4,0,0.8,0.2,1.1,0.5c0.5,0.6,0.4,1.4-0.2,1.9c-10.3,8.3-5.9,4.9-15.1,14.4c-16.2,16.8-31.5,34.4-46.8,52
	c-7.6,8.7-15.2,17.5-22.7,26.3c-3.1,3.6-6.2,7.3-9,11.2l-0.4,1.6c0.1,0.4,0.3,0.8,0.6,1.2c0.8,0.5,1.7,0.6,2.6,0.5
	c1.4-0.5,2.8-0.8,4.1-1.4c5.8-3.8,11.5-7.9,17-12.2c2.5-2.3,5.2-4.4,8-6.3c3-2.4,6.1-4.9,9.1-7.3c0.1-0.2,0.2-0.3,0.4-0.4l0.8-0.5
	c12.4-9.6,24.3-19.9,35.6-30.8l3-3.5c13.2-15.2,21.8-24.5,27.4-44.2c0.2-0.6,0.8-1,1.4-1c0.7,0.1,1.3,0.7,1.2,1.4
	c0,1.6-0.7,11.7-5.7,19.4c-0.2,0.4-0.4,0.8-0.6,1.1c-4.3,7.8-9.1,15.3-14.4,22.5c-5.8,8-11.5,16.2-18.3,23.4
	c-4.5,4.6-9.4,8.7-14.7,12.4c-0.5,0.4-1,0.9-1.5,1.3c-8.1,6.8-17.2,12.5-26.1,18.2c-2.3,1.5-4.7,3-7,4.5l-0.8,0.6
	c-0.1,0.1-0.2,0.1-0.4,0.2l-3.5,2.2c-0.6,0.6-1.2,1.3-1.8,1.9c-1,1-2.8,2.5-0.9,3.6c0.8,0.3,1.7,0.4,2.5,0.2c0.8-0.5,1.6-0.8,2.5-1
	c0.1,0,0.3,0,0.4,0c6.4-2.5,12.6-5.4,18.6-8.7c10.1-5.7,19.9-12.1,29.1-19.2c9.8-7.3,19.3-14.8,26.3-24.8
	c12.9-18.3,21.6-49.8,24.2-71.9c0.2-1.7,2.8-1.2,2.6,0.5c-1,16.5-4.3,32.8-9.7,48.4c-3.6,10.3-7.5,20.5-13.5,29.6
	c-0.1,0.1-0.1,0.3-0.3,0.4c-0.5,0.8-1,1.5-1.5,2.2c-7,9.5-16,17.3-25.3,24.5c-5.1,4-10.2,8-15.7,11.4c-1.3,0.8-2.7,1.6-4,2.3
	l-3.1,1.9c-12.4,7.7-26.1,14-40.6,16.1C43.7,190.4,38.6,192.5,33.8,195z M140.3,188.9c-0.8,2.8-1.6,5.7-2.2,8.6h-6.8
	c1-5.4,2-10.8,3.4-16c2.3-8.9,6.5-16.7,11.4-24.3c5.1-8,10.2-16,17.1-22.5c0.9-0.9,1.9-1.8,2.9-2.7c5.4-5.6,11.3-10.7,17.6-15.2
	c0.4-0.3,0.9-0.3,1.3,0c0.2,0.1,0.4,0.2,0.6,0.4c0.4,0.5,0.4,1.3-0.1,1.7l-0.4,0.3c0,0.3-0.2,0.5-0.4,0.7c-11.1,9-20.6,19.8-28.2,32
	C149.5,163.5,144,175.9,140.3,188.9z"/>
<path class="st1" d="M58.1,44.6l0.9-1.4c0-0.4,0-0.9-0.2-1.3c-0.6-0.7-1.4-1.2-2.3-1.4c-1.5,0-2.9-0.2-4.3-0.1
	C45.4,42,38.7,44,32.1,46.1c-3.1,1.3-6.3,2.3-9.6,3.2L20.4,50c0,0.6-0.1,1.3-0.1,1.9v14.6c8.6-4.7,17.1-9.5,25.6-14.4
	C50,49.7,54.1,47.3,58.1,44.6z"/>
<path class="st1" d="M187.8,160.9c-1.9,6.7-3.4,13.5-4.7,20.4c-0.4,3.4-1,6.7-1.9,10l-0.2,1.1c5.6-4.4,9.2-11.3,9.2-19v-16.4
	l-0.2,0.2C189.2,158.4,188.4,159.6,187.8,160.9z"/>
<path class="st1" d="M177.3,172.5l0.2-1c0-0.1,0.1-0.3,0.2-0.4c0.4-1.3,0.8-2.7,1.2-4c0-0.9,0.1-1.7,0.1-2.6
	c0.1-1.4,0.4-3.8-1.8-3.3c-0.8,0.3-1.5,0.8-2,1.5c-0.3,0.9-0.7,1.7-1.2,2.5c-0.1,0.1-0.2,0.2-0.3,0.3c-3.2,6.1-5.9,12.3-8.3,18.8
	c-1.6,4.4-3,8.8-4.3,13.3h4.8c1.5,0,3-0.1,4.4-0.4c1.4-5.6,3.1-11.1,4.6-16.7C175.7,177.8,176.5,175.1,177.3,172.5z"/>
<path class="st3" d="M24.7,124.7c7.6-12.4,16.4-23.9,28.6-32.4C61.8,86.6,70.9,81.8,80,77c9.4-4.9,18.9-9.5,28.6-13.8
	c10.7-4.8,21.6-9.2,32.6-13.3c0.2-0.1,0.3-0.2,0.5-0.3c3-1.3,5.9-2.7,8.7-4.4c1.7-1,3.4-2,5.1-3.1c0.2,0,0.3,0,0.5-0.1
	c2.7-1.2,6.1-2.1,8.6-0.8c2,1.8,2.9,4.5,2.4,7.2c-0.1,0.4,0,0.8,0.3,1.1c0,0.5,0,0.9,0,1.3c-0.8,7.4-2.2,14.8-2.6,22.1
	c0,0.2,0,0.4,0.1,0.6c-0.5,2.3-1,4.7-1.3,7.1c-0.4,3.1-0.6,6.2-1,9.3c-0.9,6.2-2.4,12.3-4.3,18.3c-1.2,2.8-2.4,5.5-3.6,8.3
	c-5.7,12.8-12.1,25.1-21,36c-0.5,0.6-1,1.2-1.5,1.9l-7,7.7l-0.1,0.1c-6.8,6.9-14.5,13.1-22.7,18.3c-11.4,7.3-23.7,13.1-36.6,17.2
	l-0.5,0.1h20.1c5.7-2,11.2-4.7,16.3-8.1c8.3-5.6,16-12.2,23.9-18.3c0.4-0.3,0.6-0.7,0.5-1.2c4.5-4.3,8.7-8.9,12.6-13.7
	c3.2-3.6,6.2-7.4,8.8-11.4l1.4-1.9c0.8-1.2,1.7-2.3,2.5-3.5c4-4,6.5-9.8,9-14.7l0.1-0.2c1.2-1.9,2.2-3.9,3.2-5.9
	c1.6-3.3,3.1-6.8,4.4-10.3c1.1-2.5,2.2-5,3.2-7.6c2.8-6.9,5.6-13.9,7.8-21c2.6-8.5,3.3-17.5,3.4-26.4c0-6.5-0.1-13.7-1.5-20.4
	c-4.2-3.3-9.5-5.1-14.8-5.1h-31.3c-9,1.9-18,3.7-26.7,7C95.5,39.4,83.5,45.2,72,51.9c-3.7,2.1-7.3,4.3-10.8,6.7
	c-0.1,0-0.3,0.1-0.4,0.2l-0.5,0.4c-1.8,1.2-3.6,2.5-5.3,3.8c-10,6.7-19.2,14.3-27.6,22.9c-0.7,0.7-1.4,1.5-2.1,2.3l-0.9,1
	c-0.2,0.1-0.4,0.3-0.5,0.6v0.1c-1.2,1.3-2.4,2.7-3.5,4.2v10.7c1.8-2.4,3.7-4.7,5.7-7c14.6-16.3,33.1-29.6,52.8-39
	c11.2-5.4,22.9-9.5,35-12.5c0.1,0,0.3-0.1,0.4-0.2c7.7-1.6,15.4-3,23.1-4.3c-8.6,5.4-17.6,10-26.9,14c-3.6,1.1-7.3,2.2-10.8,3.3
	C85.4,63.3,72.1,70,60,78.5c-8.2,5.8-16.1,11.9-22.9,19.2c-0.1,0.1-0.2,0.1-0.3,0.2c-3.2,3.1-6.2,6.4-8.8,10
	c-2.3,2.7-4.2,5.6-5.6,8.8c-0.7,1.3-1.4,2.6-2.1,3.9v13.5c1.1-3.2,2.5-6.2,4.3-9.1C24.6,124.9,24.7,124.8,24.7,124.7z"/>
<path class="st3" d="M92.5,170.7c1.3-0.7,2.7-1.5,4-2.3c5.5-3.4,10.6-7.5,15.7-11.4c9.3-7.2,18.3-15,25.3-24.5
	c0.5-0.7,1-1.5,1.5-2.2c0.1-0.1,0.2-0.3,0.3-0.4c6-9.1,9.9-19.3,13.5-29.6c5.4-15.6,8.7-31.9,9.7-48.4c0.2-1.7-2.4-2.1-2.6-0.5
	c-2.6,22.1-11.3,53.6-24.2,71.9c-7.1,10-16.6,17.6-26.3,24.8c-9.3,7-19,13.4-29.1,19.2c-6,3.3-12.2,6.2-18.6,8.7c-0.1,0-0.3,0-0.4,0
	c-0.9,0.2-1.7,0.6-2.5,1c-0.8,0.2-1.7,0.2-2.5-0.2c-1.9-1.1-0.2-2.7,0.9-3.6c0.6-0.6,1.2-1.2,1.8-1.9l3.5-2.2c0.1,0,0.3-0.1,0.4-0.2
	l0.8-0.6c2.3-1.5,4.7-3,7-4.5c8.9-5.8,18-11.4,26.1-18.2c0.5-0.4,1-0.9,1.5-1.3c5.3-3.6,10.2-7.8,14.7-12.4
	c6.7-7.2,12.5-15.4,18.3-23.4c5.3-7.2,10.1-14.7,14.4-22.5c0.2-0.4,0.4-0.8,0.6-1.1c5.1-7.7,5.8-17.9,5.7-19.4
	c0.1-0.7-0.5-1.4-1.2-1.4c-0.6-0.1-1.2,0.4-1.4,1c-5.5,19.6-14.2,29-27.4,44.2l-3,3.5c-11.3,10.9-23.2,21.2-35.6,30.8l-0.8,0.5
	c-0.2,0.1-0.3,0.2-0.4,0.4c-3,2.4-6.1,4.8-9.1,7.3c-2.8,1.9-5.4,4-8,6.3c-5.5,4.3-11.2,8.4-17,12.2c-1.3,0.6-2.7,0.9-4.1,1.4
	c-0.9,0.1-1.8-0.1-2.6-0.5c-0.3-0.3-0.5-0.7-0.6-1.2l0.4-1.6c2.8-3.8,5.9-7.5,9-11.2c7.5-8.8,15-17.6,22.7-26.3
	c15.3-17.6,30.6-35.2,46.8-52c9.2-9.5,4.8-6.1,15.1-14.4c0.6-0.5,0.7-1.3,0.2-1.9c-0.3-0.3-0.7-0.5-1.1-0.5c-0.4-0.4-1.1-0.4-1.5,0
	c-34.4,27.9-54.7,43.8-81.9,79.2c-1.5,1.9-2.9,3.8-4.3,5.8c-7.4,9.2-13.4,19.7-19.8,29.5l-4,6.1c2.3,5.4,6.4,9.7,11.6,12.3
	c4.9-2.5,9.9-4.6,15.1-6.3c14.5-2.1,28.1-8.5,40.6-16.1L92.5,170.7z"/>
<path class="st4" d="M184.7,119.9c0.2-0.2,0.4-0.4,0.4-0.7l0.4-0.3c0.5-0.4,0.5-1.2,0.1-1.7c-0.2-0.2-0.4-0.3-0.6-0.4
	c-0.4-0.3-0.9-0.3-1.3,0c-6.3,4.5-12.2,9.6-17.6,15.2c-1,0.9-1.9,1.8-2.9,2.7c-6.9,6.5-12,14.5-17.1,22.5c-4.9,7.7-9,15.5-11.4,24.3
	c-1.4,5.2-2.4,10.6-3.4,16h6.8c0.6-2.9,1.4-5.8,2.2-8.6c3.8-13,9.2-25.4,16.3-37C164.1,139.8,173.6,129,184.7,119.9z"/>
<path class="st4" d="M189.1,118.2c-2.8,0.9-3.4,3.9-4.1,6.3c-2.4,8-5.8,15.7-10.1,22.9c-9.5,11.2-15.6,24.9-19.9,38.9
	c-0.4,1.2-0.7,2.3-1.1,3.5c-0.5,1.4-1,2.9-1.5,4.3c-0.3,1.1-0.7,2.3-1,3.4h9.7c1.3-4.5,2.7-8.9,4.3-13.3c2.3-6.4,5.1-12.7,8.3-18.8
	c0.1-0.1,0.2-0.2,0.3-0.3c0.5-0.8,0.9-1.6,1.2-2.5c0.5-0.7,1.2-1.3,2-1.5c2.2-0.5,1.9,1.9,1.8,3.3c-0.1,0.9-0.1,1.7-0.1,2.6
	c-0.4,1.3-0.8,2.7-1.2,4c-0.1,0.1-0.1,0.2-0.2,0.4l-0.2,1c-0.8,2.7-1.5,5.3-2.3,8c-1.6,5.5-3.2,11.1-4.6,16.7
	c4-0.7,7.6-2.4,10.7-4.8l0.2-1.1c0.8-3.3,1.5-6.6,1.9-10c1.3-6.9,2.8-13.7,4.7-20.4c0.6-1.3,1.5-2.5,2.2-3.7l0.2-0.2V118
	C189.8,118,189.5,118.1,189.1,118.2z"/>
<path class="st4" d="M46.2,63c10.1-6.2,19.3-14,28.7-21c3.3-2.5,6.6-4.9,9.9-7.4c2.4-1.8,4.7-3.9,6-6.7l0.1-0.1H44.5
	c-4.2,0-8.4,1.1-12.1,3.2c3-0.3,5.9-0.4,8.9-0.5c0.1,0.1,0.3,0.1,0.4,0.1c0.9,0.1,1.9,0,2.8-0.2c0.9,0.1,1.7,0.4,2.3,1
	c1.5,1.7-0.8,2.6-2,3.1c-0.8,0.3-1.6,0.7-2.3,1.1l-4.1,0.9c-0.1,0-0.3,0-0.4,0l-1,0.3c-2.7,0.6-5.4,1.2-8.1,1.8l-5.4,1.2
	c-1.4,2.5-2.5,5.3-2.9,8.3c0,0,0,0,0,0c-0.1,0.3-0.1,0.7-0.1,1c0,0.1,0,0.2,0,0.4c0,0.1,0,0.3,0,0.4l2.1-0.7
	c3.3-0.9,6.5-1.9,9.6-3.2c6.7-2.1,13.4-4.1,20.1-5.7c1.4-0.1,2.9,0.1,4.3,0.1c0.9,0.2,1.7,0.7,2.3,1.4c0.2,0.4,0.2,0.8,0.2,1.3
	l-0.9,1.4c-4,2.7-8.1,5.1-12.2,7.5c-8.5,4.9-17,9.6-25.6,14.4v12.4c6.3-3.5,12.9-7.4,19.9-11.9C42.2,65.6,44.2,64.3,46.2,63z"/>
</svg>
